<?xml version="1.0" encoding="UTF-8"?>
<svg width="140px" height="178px" viewBox="0 0 140 178" version="1.1" xmlns="http://www.w3.org/2000/svg" xmlns:xlink="http://www.w3.org/1999/xlink">
    <!-- Generator: Sketch 53.2 (72643) - https://sketchapp.com -->
    <title>分组 11</title>
    <desc>Created with Sketch.</desc>
    <defs>
        <linearGradient x1="50%" y1="0%" x2="50%" y2="100%" id="linearGradient-1">
            <stop stop-color="#0086EA" offset="0%"></stop>
            <stop stop-color="#004ED1" offset="100%"></stop>
        </linearGradient>
        <linearGradient x1="0%" y1="50%" x2="100%" y2="50%" id="linearGradient-2">
            <stop stop-color="#00BBF6" offset="0%"></stop>
            <stop stop-color="#0086EA" offset="100%"></stop>
        </linearGradient>
    </defs>
    <g id="Page-1" stroke="none" stroke-width="1" fill="none" fill-rule="evenodd">
        <g id="实时通行信息3（通行人员在库）" transform="translate(-1095.000000, -857.000000)">
            <g id="分组-11" transform="translate(1095.000000, 857.500000)">
                <rect id="矩形-copy-30" fill="url(#linearGradient-1)" fill-rule="nonzero" x="0" y="0" width="140" height="177"></rect>
                <path d="M119.417918,129.528005 C108.343579,125.313109 94.720772,121.391965 91.0925912,119.911396 C90.2711906,119.223089 89.3757615,118.629287 88.4212672,118.141802 L88.4212672,108.708689 C93.0047299,104.603261 95.3405633,94.9401875 97.3928835,88.2681779 C100.533579,86.696255 102.76467,83.7532309 103.427776,80.3046084 C104.737449,74.995037 103.056846,70.1635003 99.6586262,69.0310228 C102.896976,58.2882368 101.180934,50.5373022 99.6586262,46.6263957 C99.0923874,45.3876007 98.0307881,43.7062102 97.7827141,43.2108497 C97.5354276,42.7154893 97.69451,43.1218581 97.6417451,43.0690932 L97.4645494,42.7328151 C95.7429945,39.2826175 93.1504242,36.3427436 89.9427878,34.2030068 C89.5135804,33.8620035 89.0442087,33.5769152 88.5449105,33.3532549 C86.7154631,32.364109 84.7639475,31.6198869 82.7399786,31.1410647 C81.120016,30.6425541 79.4638266,30.2747745 77.7847987,30.0440263 C76.3333689,29.8132781 75.0764605,29.6723091 74.1211787,29.6014308 C73.6006171,29.5163768 73.0729676,29.4864504 72.5461056,29.5124391 L72.1389492,29.5124391 C60.9716811,28.8579963 55.0966585,33.6359805 52.6718335,36.4506361 C52.424547,36.6979225 53.0254374,36.9278832 52.8309159,37.1578439 L51.9819515,37.7240827 C51.4464266,37.947743 50.9368905,38.226531 50.4596433,38.5557212 C48.9554485,38.9983168 44.407425,41.2640594 42.1771215,52.4659792 C41.0076298,58.0559136 41.3935227,63.8584828 43.2922733,69.2436577 C40.0184839,70.4997785 38.4252974,75.3840801 39.753084,80.5700082 C40.7973575,84.7463145 43.3985907,87.8972482 46.1943454,88.7462126 C48.264779,95.2229131 50.9022389,104.673352 55.3092934,108.691363 L55.3092934,118.053597 C54.3610994,118.542658 53.4703955,119.13646 52.6545077,119.823192 C48.5199408,121.442367 32.1257926,126.214839 20.582082,130.940845 L20.582082,147.548416 L119.417918,147.548416 L119.417918,129.528005 Z" id="Fill-1-Copy" fill="url(#linearGradient-2)"></path>
            </g>
        </g>
    </g>
</svg>